<?xml version="1.0" standalone="no"?><!DOCTYPE svg PUBLIC "-//W3C//DTD SVG 1.1//EN" "http://www.w3.org/Graphics/SVG/1.1/DTD/svg11.dtd"><svg t="1539082538338" class="icon" style="" viewBox="0 0 1024 1024" version="1.1" xmlns="http://www.w3.org/2000/svg" p-id="1499" xmlns:xlink="http://www.w3.org/1999/xlink" width="64" height="64"><defs><style type="text/css"></style></defs><path d="M42.09777778 405.39022221c22.64177779 0 40.96-18.31822223 40.96-40.95999998V131.64088887c0-21.61777778 20.70755555-39.4808889 44.82844445-39.48088887h227.32799999c22.64177779 0 40.96-18.31822223 40.96-40.96s-18.31822223-40.96-40.96-40.96H127.88622221C58.14044444 10.24 1.13777778 64.39822222 1.13777778 131.64088887v232.78933336c0 22.64177779 18.31822223 40.96 40.96 40.95999998zM896.11377779 10.24H669.8097778c-22.64177779 0-40.96 18.31822223-40.96000003 40.96s18.31822223 40.96 40.96 40.96h226.19022224c24.12088889 0 44.82844445 17.74933333 44.82844443 39.4808889v232.78933331c0 22.64177779 18.31822223 40.96 40.96 40.96000002s40.96-18.31822223 40.96-40.96V131.64088887C1022.86222222 64.39822222 965.85955556 10.24 896.11377779 10.24zM981.90222222 626.80177779c-22.64177779 0-40.96 18.31822223-40.96 40.95999998v235.06488892c0 21.61777778-20.70755555 40.39111113-44.82844445 40.39111109H669.8097778c-22.64177779 0-40.96 18.31822223-40.96000003 40.96s18.31822223 40.96 40.96 40.96h226.19022224c69.74577779 0 126.74844445-55.18222223 126.74844443-122.31111112V667.76177779c0.11377779-22.64177779-18.20444445-40.96-40.84622222-40.96000002zM355.32799999 943.21777778H127.88622221c-24.12088889 0-44.82844445-18.77333334-44.82844443-40.39111112V667.76177779c0-22.64177779-18.31822223-40.96-40.96-40.96000002s-40.96 18.31822223-40.96 40.96v235.06488892c0 67.12888889 57.00266668 122.31111113 126.74844443 122.31111109h227.32800001c22.64177779 0 40.96-18.31822223 40.96-40.96s-18.31822223-40.96-40.84622223-40.96zM705.53600001 759.12533333c50.97244445 0 94.208-34.36088889 108.54399998-79.872h35.3848889c0.68266667 0 1.47911113-0.11377779 2.16177777-0.11377779 11.26400001 0 26.28266668-3.75466668 38.11555556-14.56355553 13.76711113-12.40177779 16.9528889-29.92355556 15.8151111-43.5768889v-62.9191111c0-41.07377779-14.336-81.35111114-40.27733333-113.55022224-22.07288889-27.42044446-51.88266667-48.01422222-84.99199999-58.9368889-33.22311111-95.00444446-123.56266667-160.3128889-225.28-160.31288887h-87.95022221c-101.60355556 0-191.94311113 65.30844445-225.28 160.54044444-32.768 10.8088889-62.0088889 31.06133334-84.08177779 58.02666666-26.28266668 32.19911113-40.50488889 72.93155556-40.50488889 114.34666668v60.30222222c-1.13777778 8.87466667-0.79644446 28.21688889 12.74311111 42.78044445 12.51555555 13.53955556 28.78577779 18.20444445 42.21155557 18.20444444 2.16177779 0 4.20977779-0.22755555 6.25777776-0.22755556h29.69600001c14.44977779 45.51111113 57.68533334 79.872 108.54399998 79.872s94.208-34.36088889 108.544-79.872h171.69066668c14.44977779 45.51111113 57.68533334 79.872 108.65777779 79.872z m-2e-8-68.49422222c-25.03111111 0-45.39733334-20.36622223-45.39733332-45.39733334s20.36622223-45.39733334 45.39733334-45.39733332c24.91733334 0 45.16977779 20.13866668 45.39733332 45.05600001v0.56888888c0 24.91733334-20.36622223 45.16977779-45.39733334 45.16977777zM185.45777778 558.19377778c0-52.56533333 37.09155555-98.98666667 88.51911111-110.25066668 7.73688889-1.70666668 14.10844445-5.91644445 18.88711111-11.60533331 4.55111111-4.20977779 8.07822223-9.89866668 9.7848889-16.384C322.90133333 345.65688889 390.48533333 293.54666667 467.05777776 293.54666667h87.95022224c76.57244446 0 144.27022222 52.11022222 164.52266667 126.40711112 2.27555555 8.41955555 7.50933333 15.36000001 14.336 19.68355554 4.20977779 3.98222223 9.67111113 7.05422222 15.81511112 8.41955556 50.74488889 11.71911113 87.72266668 58.02666667 87.72266666 110.02311112V610.98666667h-23.55200001c-14.67733334-46.64888889-57.68533334-79.18933333-108.31644443-79.18933334S611.78311113 564.33777778 597.10577778 610.98666667H425.07377778c-14.67733334-46.64888889-57.68533334-79.18933333-108.31644445-79.18933334S222.89066666 564.33777778 208.3271111 610.98666667H185.45777778v-52.79288889zM316.64355554 690.63111111c-25.03111111 0-45.39733334-20.36622223-45.39733332-45.39733334s20.36622223-45.39733334 45.39733332-45.39733332 45.39733334 20.36622223 45.39733335 45.39733334-20.36622223 45.39733334-45.39733335 45.39733332z" p-id="1500"></path></svg>