<?xml version="1.0" standalone="no"?><!DOCTYPE svg PUBLIC "-//W3C//DTD SVG 1.1//EN" "http://www.w3.org/Graphics/SVG/1.1/DTD/svg11.dtd"><svg t="1539082657009" class="icon" style="" viewBox="0 0 1024 1024" version="1.1" xmlns="http://www.w3.org/2000/svg" p-id="1499" xmlns:xlink="http://www.w3.org/1999/xlink" width="64" height="64"><defs><style type="text/css"></style></defs><path d="M21.34997233 516.24919567c0 237.406684 148.577571 441.27845801 357.620378 486.384192 24.31921001 0 17.91941799-22.527268 25.85516-54.06544299-16.281071-12.953179-11.417229-27.903093-37.83557099-32.40854701C226.14331733 892.04498167 77.66814233 718.99460567 88.72698332 516.24919567a562.669713 562.669713 0 0 1 34.814868-162.14513099c28.36387799 7.98694 46.33449401 51.812716 51.09594 54.01424499 16.127476 44.952139 23.44883799 51.044741 51.04474101 54.06544301-11.110039-3.02070199-3.839875-12.901981 0-54.06544301C280.05516533 198.81951167 410.66212033 107.68647367 430.06628933 83.93044567c-5.887809-42.494619-21.247309-54.884616-51.095939-54.01424499C167.62361932 79.52738866 21.34997233 280.53205567 21.34997233 516.24919567z m972.768385 0c0 235.76833801-146.27364601 436.721807-357.620377 486.384192-29.84862999 0.767975-45.208131-11.62202201-51.095939-54.06544299 19.352971-23.70483001 150.011125-114.837868 204.383757-324.23906201 3.839875-41.16346201 11.110039-51.044741 0-54.065443 27.544705 3.02070199 34.917265 9.113304 51.04474099 54.065443 4.761445 2.252727 22.732061 46.07850201 51.09594 54.014245 19.301773-51.095939 39.93470201-108.028489 37.272388-162.093932-9.983676-203.052601-131.579724-386.189049-292.70088699-396.889502-23.500036-28.97825801-18.431401-22.424871-34.66127301-35.429248 7.833345-31.486977 10.29086599-54.065443 34.66127301-54.065443C845.54078633 74.97073668 994.11835733 278.84251067 994.11835733 516.24919567zM507.73416533 695.44337167a179.194176 179.194176 0 1 1 0-358.388353 179.194176 179.194176 0 0 1 0 358.388353z" p-id="1500" fill="#24292e"></path></svg>