<?xml version="1.0" standalone="no"?><!DOCTYPE svg PUBLIC "-//W3C//DTD SVG 1.1//EN" "http://www.w3.org/Graphics/SVG/1.1/DTD/svg11.dtd"><svg t="1537865104514" class="icon" style="" viewBox="0 0 1024 1024" version="1.1" xmlns="http://www.w3.org/2000/svg" p-id="846" xmlns:xlink="http://www.w3.org/1999/xlink" width="64" height="64"><defs><style type="text/css"></style></defs><path d="M799.45 871.72q0 30.9-20.97 51.87-20.97 20.96-52.97 22.07H169.37q-32-1.11-52.41-22.07-20.42-20.97-21.52-51.87v-416q33.1 19.87 73.93 19.87h556.14q40.82 0 73.93-19.87v87.18h79.45V314.48q-2.21-65.1-45.25-108.14-43.03-43.03-108.13-44.13H596.4l1.11-12.14q-2.21-64-44.14-106.48Q511.44 1.11 447.44 0.01q-64 1.1-105.93 43.58-41.93 42.48-44.14 106.48l1.1 12.14h-129.1q-65.1 1.1-108.13 44.13-43.04 43.03-45.25 108.14v556.14q2.21 65.1 45.25 108.69 43.03 43.59 108.13 44.69h556.14q65.1-1.1 108.13-44.69 43.04-43.59 45.25-108.69v-93.79h-79.45v94.89z m-352-793.38q29.79 1.11 50.21 20.97t20.42 50.21q0 30.34-20.42 50.21-20.42 19.86-50.2 19.86-29.79 0-49.66-19.86-19.87-19.87-19.87-50.21 0-30.35 19.87-50.21t49.65-20.97z m-352 236.14q1.1-30.89 21.52-51.86 20.41-20.97 52.41-22.07h160q20.96 27.59 51.3 43.03 30.35 15.44 66.76 15.44 36.42 0 66.76-15.44 30.35-15.44 51.32-43.03h160q32 1.11 52.97 22.07t20.97 51.86v8.83q0 30.9-20.97 51.86-20.97 20.97-52.97 22.07H169.38q-32-1.1-52.41-22.07-20.42-20.96-21.52-51.86v-8.83z m873.93 317.8H703.45V514.21L545.66 672l157.79 157.79V711.72h265.93q16.55-1.1 27.58-12.13Q1008 688.55 1008 672t-11.04-28.13q-11.03-11.59-27.58-11.59z m-816.55-70.62h354.2v39.72h-354.2v-39.72z m0 264.82h354.2v39.73h-354.2v-39.73z m0-132.41h226.2v39.72h-226.2v-39.72z" p-id="847"></path></svg>