<?xml version="1.0" standalone="no"?><!DOCTYPE svg PUBLIC "-//W3C//DTD SVG 1.1//EN" "http://www.w3.org/Graphics/SVG/1.1/DTD/svg11.dtd"><svg t="1542614535560" class="icon" style="" viewBox="0 0 1045 1024" version="1.1" xmlns="http://www.w3.org/2000/svg" p-id="2574" xmlns:xlink="http://www.w3.org/1999/xlink" width="65.3125" height="64"><defs><style type="text/css"></style></defs><path d="M260.83858962 182.54734221h525.63740445v65.70439112H260.83858962v-65.70439112z m-1.75217778 132.05390223h525.63740444v65.7043911H259.08754962v-65.7043911z m-129.65546667-264.53333333h788.45383111v525.63512888h65.70439112V50.06677333c0-36.28714667-29.41724445-65.70439111-65.70439112-65.70439112H129.4298074c-36.28714667 0-65.70439111 29.41724445-65.70439112 65.70439112v919.86261333c0 36.28714667 29.41724445 65.70439111 65.70439112 65.70439111h459.93187555v-65.70439111H129.4298074V50.06677333z m130.9696 527.3440711v65.70439112h159.80430223c0-22.83292445 3.34506667-44.88192 9.54140444-65.70439112H260.40054517z m268.6418489-131.40878222H259.08754962v65.70439112H458.81647407a231.17027555 231.17027555 0 0 1 70.22592-65.70439112z m497.48878221 528.81294222L875.8689185 825.94474666c34.63850667-40.25685333 55.58272-92.63445333 55.58272-149.90677333 0-127.00672-102.96092445-229.96650667-229.9642311-229.96650667-127.00558222 0-229.96536889 102.95978667-229.9653689 229.96650667 0 127.00330667 102.95978667 229.96536889 229.9653689 229.96536888 45.97987555 0 88.80355555-13.50200889 124.73457777-36.74908444l153.84803556 152.02304c12.82958222 12.82958222 33.63043555 12.82958222 46.46001777 0 12.82730667-12.83072 12.82730667-33.63043555 0-46.46115556zM537.22529184 676.03797333c0-90.71957333 73.54481778-164.26097778 164.26325333-164.26097779 90.71616 0 164.25984 73.54140445 164.25984 164.26097779 0 90.71616-73.54368 164.26097778-164.26097777 164.26097778s-164.26097778-73.54481778-164.26097778-164.26097778z" fill="" p-id="2575"></path></svg>