<?xml version="1.0" standalone="no"?><!DOCTYPE svg PUBLIC "-//W3C//DTD SVG 1.1//EN" "http://www.w3.org/Graphics/SVG/1.1/DTD/svg11.dtd"><svg t="1539082770472" class="icon" style="" viewBox="0 0 1024 1024" version="1.1" xmlns="http://www.w3.org/2000/svg" p-id="1500" xmlns:xlink="http://www.w3.org/1999/xlink" width="64" height="64"><defs><style type="text/css"></style></defs><path d="M970.93333333 579.91146667h-47.82186666c-10.45653333 0-18.93333333-8.4768-18.93333334-18.93333334V462.66666667c0-10.45653333 8.4768-18.93333333 18.93333334-18.93333334h47.82186666c10.45653333 0 18.93333333 8.4768 18.93333334 18.93333334v98.31146666c0 10.45653333-8.4768 18.93333333-18.93333334 18.93333334z" p-id="1501" fill="#24292e"></path><path d="M868.26666667 239.20213333H87.05386667c-29.45493333 0-53.33333333 23.8784-53.33333334 53.33333334v438.9056c0 29.45493333 23.8784 53.33333333 53.33333334 53.33333333H868.26666667c29.45493333 0 53.33333333-23.8784 53.33333333-53.33333333V292.53546667c0-29.45493333-23.8784-53.33333333-53.33333333-53.33333334zM397.37386667 716.688l67.50933333-172.9152L331.73333333 538.37546667l227.12106667-231.51786667-67.51573333 172.92373333 133.1488 5.40053334-227.1136 231.50613333z" p-id="1502" fill="#24292e"></path></svg>