<?xml version="1.0" standalone="no"?><!DOCTYPE svg PUBLIC "-//W3C//DTD SVG 1.1//EN" "http://www.w3.org/Graphics/SVG/1.1/DTD/svg11.dtd"><svg t="1539082402710" class="icon" style="" viewBox="0 0 1024 1024" version="1.1" xmlns="http://www.w3.org/2000/svg" p-id="1499" xmlns:xlink="http://www.w3.org/1999/xlink" width="64" height="64"><defs><style type="text/css"></style></defs><path d="M282.28266666 707.47022222h459.43466668V808.96H282.28266666z" p-id="1500"></path><path d="M243.48444445 1021.49688889c-59.84711111 0-106.72355555-46.87644445-106.72355556-106.72355556V243.48444445c0-59.84711111 46.87644445-106.72355555 106.72355556-106.72355556h94.77688889v-61.21244444c0-39.59466667 33.45066667-73.15911113 73.15911111-73.15911113h201.38666666c39.59466667 0 73.15911113 33.45066667 73.15911112 73.15911113v61.21244444H780.51555555c59.84711111 0 106.60977779 46.87644445 106.60977779 106.72355556v671.28888888c0 59.84711111-46.87644445 106.72355555-106.60977779 106.72355556H243.48444445z m0-827.9608889c-27.53422222 0-49.94844446 22.41422223-49.94844446 49.94844446v671.28888888c0 27.53422222 22.41422223 49.94844446 49.94844446 49.94844446h537.0311111c27.53422222 0 49.94844446-22.41422223 49.94844446-49.94844446V243.48444445c0-27.53422222-22.41422223-49.94844446-49.94844446-49.94844446H243.48444445zM411.30666666 59.16444445c-9.67111113 0-16.384 6.7128889-16.38399998 16.384v61.21244444H629.19111111v-61.21244444c0-9.67111113-6.7128889-16.384-16.384-16.384H411.30666666z" p-id="1501"></path></svg>