<?xml version="1.0" standalone="no"?><!DOCTYPE svg PUBLIC "-//W3C//DTD SVG 1.1//EN" "http://www.w3.org/Graphics/SVG/1.1/DTD/svg11.dtd"><svg t="1539082488821" class="icon" style="" viewBox="0 0 1024 1024" version="1.1" xmlns="http://www.w3.org/2000/svg" p-id="1499" xmlns:xlink="http://www.w3.org/1999/xlink" width="64" height="64"><defs><style type="text/css"></style></defs><path d="M511.988473 0.182953c-0.171519-0.182953-0.171519 0 0 0z" p-id="1500"></path><path d="M511.988473 0.182953L511.794085 7.375297V0C503.17242 8.461581 112.727611 396.505131 126.81500001 640.941923c0.72037798 211.65388099 172.661999 383.058077 384.45309499 383.058077h1.440756c211.848269 0 383.732717-171.347024 384.45309501-383.058077C910.86056 396.871037 520.450055 8.82748801 511.988473 0.182953zM838.66268801 640.221545c-0.52598999 179.79717001-146.362489 325.222025-326.12535602 325.22202499h-1.45219C331.287972 965.44356999 185.497211 819.858631 185.13130501 640.221545h-0.17151902C172.358891 429.09365399 511.451048 75.94841001 511.451048 75.94841001l0.182953 0.18295399v0.36590603l0.182954-0.18295303 0.171518 0.18295303v-0.36590603l0.18295301-0.18295399S852.70434 427.82441701 838.66268801 640.221545z" p-id="1501"></path><path d="M216.78219301 637.511552c0 163.60582 132.64100601 296.075307 296.155349 296.075307 137.512132 0 252.15512599-104.05458199 285.46402699-231.09264901-68.20720701-52.19881001-239.794356-38.52306501-239.79435601-38.52306398-138.358291 0-252.875504-64.433799-326.31974399-123.49335101A309.51092599 309.51092599 0 0 0 216.78219301 637.511552z" p-id="1502"></path></svg>