<?xml version="1.0" standalone="no"?><!DOCTYPE svg PUBLIC "-//W3C//DTD SVG 1.1//EN" "http://www.w3.org/Graphics/SVG/1.1/DTD/svg11.dtd"><svg t="1539082624117" class="icon" style="" viewBox="0 0 1030 1024" version="1.1" xmlns="http://www.w3.org/2000/svg" p-id="1499" xmlns:xlink="http://www.w3.org/1999/xlink" width="64.375" height="64"><defs><style type="text/css"></style></defs><path d="M3.208533 439.125333l-3.208533 37.4784 63.214933 5.256534-34.0992 48.878933 34.338134 15.803733L105.915733 485.376l32.9728 2.730667-49.3568 70.587733 34.2016 15.325867 57.7536-82.397867 117.930667 9.864533-45.806933 46.455467 59.357866 27.716267-49.8688 23.4496-92.091733-42.973867-21.0944 30.4128 70.212267 32.802133-39.6288 18.670934 15.7696 33.4848 39.560533-18.6368-19.456 74.9568 36.932267 3.106133 25.531733-98.235733 49.834667-23.517867-16.452267 63.317333 64.989867-5.666133-67.584 97.109333-100.283734-7.953066-9.966933 36.1472 85.879467 6.9632-18.944 27.170133-74.171734-6.212267-9.693866 36.5568 59.426133 4.881067-36.181333 51.985067 30.8224 21.469866 36.1472-52.053333 25.2928 53.9648 30.856533-21.8112-31.744-67.3792 18.8416-27.170133 36.488533 77.994666 30.344534-21.9136-42.461867-91.2384 67.4816-97.211733 17.373867 62.907733 53.691733-37.546666-4.608 54.8864-83.285333 58.2656 15.735466 33.518933 63.556267-44.4416-3.618133 43.656533 36.898133 3.072 3.618133-43.554133 55.1936 54.272 21.128534-30.4128-72.362667-71.236267 4.608-54.954666 46.592 45.909333 27.613867-59.0848 50.312533 107.076267-57.070933 82.875733 26.282666 26.692267 48.981334-70.8608 14.062933 29.969066-42.461867 61.1328 26.794667 26.624 33.928533-48.981333 26.965334 57.412267 34.030933-15.9744-27.067733-57.344 59.426133 5.085866-3.447467-37.614933-74.205866-6.212267-14.097067-29.934933 85.845333 7.441067-3.822933-37.2736-100.215467-8.840534-50.449066-107.042133 63.146666 16.418133-5.666133-65.262933 45.226667 31.4368 8.8064 101.239467 36.932266 3.106133-6.7584-77.243733 35.976534 24.951466 21.128533-30.378666-35.908267-24.9856 74.615467-20.5824-15.7696-33.518934-97.826133 26.999467-45.2608-31.4368 63.010133-17.408-37.376-53.4528 117.930667 9.966933 43.2128 90.8288 36.283733-9.4208-36.898133-77.824 32.9728 2.7648 31.709866 67.413334 36.4544-9.898667-25.463466-53.896533 63.1808 5.3248 3.1744-37.410134-63.1808-5.256533 34.0992-48.878933-34.269867-15.872-42.496 61.1328-32.9728-2.730667 49.3568-70.587733-34.2016-15.325867-57.787733 82.397867-117.896534-9.8304 45.7728-46.455467-59.357866-27.716267 49.8688-23.483733 92.091733 43.008 21.128533-30.4128-70.212266-32.802133 39.6288-18.670934-15.906134-33.450666-39.5264 18.6368 19.456-74.9568-36.9664-3.106134-25.4976 98.269867-49.8688 23.4496 16.418134-63.317333-64.989867 5.700266 67.584-97.143466 100.317867 7.9872 9.966933-36.1472-85.845333-6.929067 18.909866-27.136 74.205867 6.2464 9.6256-36.522667-59.392-4.846933 36.215467-52.087467-30.8224-21.469866-36.1472 52.087466-25.258667-53.998933-30.856533 21.8112 31.709866 67.3792-18.8416 27.170133-36.488533-78.062933-30.378667 21.947733 42.461867 91.204267-67.447467 97.211733-17.373866-62.8736-53.725867 37.546667 4.608-54.8864 83.285333-58.299733-15.7696-33.4848-63.522133 44.4416 3.6864-43.656534-36.932267-3.106133-3.652266 43.554133-55.159467-54.306133-21.162667 30.446933 72.328534 71.236267-4.608 54.920533-46.592-45.8752-27.579734 59.0848L390.2464 191.419733l57.0368-82.8416-26.248533-26.7264-48.9472 70.894934-14.097067-29.969067L400.4864 61.610667l-26.794667-26.624-33.8944 49.015466-26.965333-57.412266-34.030933 16.008533 26.999466 57.344-59.357866-5.12 3.447466 37.614933 74.171734 6.2464 14.1312 29.934934-85.8112-7.4752 3.822933 37.2736 100.2496 8.840533 50.4832 107.042133-63.146667-16.418133 5.666134 65.297067-45.294934-31.4368-8.8064-101.2736-36.932266-3.072 6.724266 77.2096-35.976533-24.951467-21.128533 30.378667 35.908266 24.9856-74.615466 20.5824 15.7696 33.518933 97.860266-27.0336 45.226667 31.470933-63.010133 17.408 37.376 53.418667-117.930667-9.9328-43.2128-90.862933-36.2496 9.386666 36.898133 77.858134-32.9728-2.798934-31.675733-67.345066-36.488533 9.898666 25.4976 53.8624-63.214934-5.3248z m592.384-86.289066l-56.1152 80.896 8.192-97.928534 36.215467-25.361066 11.707733 42.3936z m74.308267 17.442133l-11.093333 42.666667-88.849067 41.813333 56.1152-80.6912 43.8272-3.7888z m44.680533 94.9248l-30.890666 31.368533-98.133334-8.192 88.917334-41.847466 40.106666 18.670933z m-51.336533 116.087467l-80.657067-56.081067 97.928534 8.2944 25.1904 36.0448-42.461867 11.741867z m-101.888-25.736534l80.725333 56.1152 3.822934 44.066134-42.564267-11.0592-41.984-89.122134z m-41.6768 113.7664l8.226133-97.860266 41.7792 88.917333-18.602666 39.867733-31.402667-30.9248z m-152.4736-248.695466l80.622933 56.046933-97.928533-8.2944-25.1904-35.976533 42.496-11.776z m101.922133 25.736533l-80.725333-56.046933-3.857067-44.066134 42.564267 11.093334 42.018133 89.019733z m33.416534-15.906133l-41.7792-88.8832 18.602666-39.901867 31.4368 30.958933-8.260266 97.826134z m-67.652267 218.658133l56.081067-80.861867-8.192 97.928534-36.215467 25.326933-11.6736-42.3936z m-74.308267-17.442133l11.093334-42.666667 88.849066-41.847467-56.1152 80.6912-43.8272 3.822934z m-44.680533-94.890667l30.856533-31.368533 98.0992 8.192-88.917333 41.813333-40.0384-18.6368z" p-id="1500" fill="#24292e"></path></svg>