<?xml version="1.0" standalone="no"?><!DOCTYPE svg PUBLIC "-//W3C//DTD SVG 1.1//EN" "http://www.w3.org/Graphics/SVG/1.1/DTD/svg11.dtd"><svg t="1539082387592" class="icon" style="" viewBox="0 0 1139 1024" version="1.1" xmlns="http://www.w3.org/2000/svg" p-id="1499" xmlns:xlink="http://www.w3.org/1999/xlink" width="71.1875" height="64"><defs><style type="text/css"></style></defs><path d="M544.397843 508.05570399l91.894518-64.01896299-201.576296-201.576297a57.874963 57.874963 0 0 1 81.844148-81.844148l216.44326 216.44326 145.066666-19.342223 151.21066701-324.266666a57.874963 57.874963 0 0 1 104.90311099 48.924444L951.722287 473.694815c-3.527111 7.585185-8.495407 14.032593-14.411851 19.190518l0.303407 1.137778-287.09925901 211.892148a57.799111 57.799111 0 0 1-13.539556 13.274074l-353.69718499 247.65629699a57.874963 57.874963 0 1 1-66.37037-94.81481499l303.179851-212.271408-142.411851-107.102814-304.848593 87.15377701a56.888889 56.888889 0 0 1-70.61807401-39.97392601 58.861037 58.861037 0 0 1 40.656593-71.831703l353.697185-101.148445 1.82044402-3.299555 3.223704 1.85837 1.66874099-0.45511101 0.455111 1.66874101 140.705185 81.42696299z m239.464296-186.14044499c-60.871111 0-110.250667-50.555259-110.250666-112.90548099s49.379556-112.867556 110.250666-112.867556 110.250667 50.517333 110.25066699 112.867556-49.379556 112.905481-110.25066699 112.90548099z m-307.46548101 616.22044501l126.06577801-33.26103701v33.26103701l-126.06577801 34.05748099v-34.05748099z m2.01007402 58.026666l68.98725899-5.688889-9.898667 27.192889-69.25274001 6.371556 10.16414802-27.875556z" p-id="1500"></path></svg>