<?xml version="1.0" standalone="no"?><!DOCTYPE svg PUBLIC "-//W3C//DTD SVG 1.1//EN" "http://www.w3.org/Graphics/SVG/1.1/DTD/svg11.dtd"><svg t="1539082750743" class="icon" style="" viewBox="0 0 1024 1024" version="1.1" xmlns="http://www.w3.org/2000/svg" p-id="1499" xmlns:xlink="http://www.w3.org/1999/xlink" width="64" height="64"><defs><style type="text/css"></style></defs><path d="M271.27352889 184.34275555c4.58296889 0.24689778 8.94407111-0.24803555 13.09809778-1.2435911l137.30360888 237.81717333c9.44924445 16.36465778 34.79096889 1.60540445 25.32010667-14.80135111-45.87064889-79.44647111-91.73674667-158.89408-137.60512-238.34168889 7.92689778-8.88490667 13.15271111-20.40376889 14.70919111-32.31630223 0.31971555-1.33575111 0.52224-2.76024889 0.43463112-4.37475555 0.08647111-1.58492445-0.10808889-3.01169778-0.4152889-4.33038222-0.10922667-0.91363555-0.24348445-1.59516445-0.39139555-2.73294223L514.27555555 124.01777778c15.92888889 0 15.92888889-29.58222222 0-29.58222223H309.46304c-9.41283555-10.24-22.64405333-15.92775111-38.18951111-16.76515555-30.03164445-1.61792-51.76661333 25.66826667-53.25824 53.33219555-0.60188445 11.16273778 2.78983111 21.21159111 8.69831111 29.46958223-46.49984 80.81408-92.99854222 161.64864-139.49838222 242.46272a61.92128 61.92128 0 0 0-14.68188445-2.57365333c-30.03164445-1.61792-51.76888889 25.59544889-53.25824 53.25937777-1.61792 30.03392 25.59203555 51.77344 53.25824 53.26392889 28.44558222 1.53144889 49.41596445-22.80220445 52.82360889-48.88576 0.31971555-1.33575111 0.52224-2.75911111 0.43463111-4.37475556 0.08647111-1.58492445-0.10808889-2.98552889-0.41528888-4.30421333-1.45066667-12.01834667-6.17244445-22.47907555-13.3791289-30.63011555 45.96053333-79.87882667 91.91992889-159.75651555 137.8816-239.63420445 6.75157333 3.02990222 14.04928 4.89016889 21.39477334 5.28725333z m-222.67448889 269.28355556c-1.66456889-30.88725333 46.21653333-30.71886222 47.87086222 0-1.66229333 30.87473778-46.20970667 30.87473778-47.87086222 0z m246.61105778-322.54520889c-1.66229333 30.87473778-46.20856889 30.87473778-47.87086223 0-1.66456889-30.88725333 46.21653333-30.71886222 47.87086223 0zM360.67555555 896.56888889h-91.02222222c-17.06666667 0-17.06666667 28.44444445 0 28.44444444h91.02222222c20.48 0 20.48-28.44444445 0-28.44444444z" fill="#24292e" p-id="1500"></path><path d="M995.27111111 547.06289778c-3.35872-27.81866667-24.20736-47.40664889-52.84295111-48.95061333-30.03164445-1.61792-51.76661333 25.58976-53.25824 53.25482666-0.93411555 17.33404445 7.75964445 32.04551111 20.57784889 41.55392A800915.87925333 800915.87925333 0 0 0 734.91569778 896.56888889H577.55648c44.47232-53.47555555 88.94350222-106.17742222 133.41582222-159.17738667 0.03868445-0.00455111 0.07281778-0.09102222 0.11150223-0.09784889 29.99068445-4.54542222 57.37358222-18.55715555 73.15797333-45.24828444 16.61610667-28.10083555 9.73141333-62.13745778-5.11317333-89.34286222 8.13511111-15.13813333 16.26908445-30.28536889 24.40533333-45.42236445 8.94862222-16.65251555-16.36693333-31.46638222-25.32010667-14.80704-8.45368889 15.73319111-16.90851555 31.46296889-25.36448 47.19274667-29.11573333 5.632-55.84668445 20.73031111-69.56714666 48.11320889a16.69916445 16.69916445 0 0 0-0.97166223 2.42574222c-0.17294222 0.35271111-0.35157333 0.70200889-0.50631111 1.07633778-10.75427555 26.12451555-6.18609778 53.50741333 6.06776889 77.75687111C648.28529778 766.21596445 608.71111111 813.39392 568.88888889 860.57187555V708.04252445c2.27555555-0.98645333 2.26304-2.19249778 3.10954666-3.65568 28.63672889-49.60256 57.38496-99.20398222 86.02396445-148.80654223 9.472-16.40561778-16.03811555-31.16600889-25.48736-14.80135111C611.37578667 577.42791111 590.50666667 614.07800889 568.88888889 650.72810667V303.85152c25.03111111-17.92568889 42.32874667-42.38108445 43.53479111-74.08981333 1.18215111-31.09205333-18.50368-57.07320889-43.53479111-74.56995556V127.43111111c0-19.34222222-29.58222222-19.34222222-29.58222222 0v29.27388444c-22.75555555 17.13379555-38.95409778 40.07367111-41.20007112 69.376-0.19569778 1.06268445-0.11605333 2.19818667-0.0762311 3.42243556-0.04664889 1.22538667-0.22072889 2.36430222-0.03185778 3.4304C500.09088 262.40455111 516.55111111 285.50485333 539.30666667 302.79452445v270.67164444c-19.34222222-34.80348445-39.83246222-69.60583111-59.92675556-104.40817778-9.44924445-16.36465778-34.61461333-1.60540445-25.14261333 14.80135111 26.58531555 46.04814222 52.90666667 92.09628445 79.49312 138.14556445 1.57923555 2.73635555 4.43847111 4.58524445 5.57624889 5.71960888v230.68558223c-40.96-50.53326222-84.44700445-101.06424889-126.84856889-151.59523556 12.55651555-24.44515555 17.73795555-52.14890667 6.86762667-78.56355555-0.1536-0.37546667-0.24348445-0.72590222-0.41870223-1.07861334-0.256-0.80099555-0.51768889-1.60995555-0.92615111-2.42460444-14.58631111-29.10890667-43.84995555-44.34261333-75.07512889-49.07235556a23.54744889 23.54744889 0 0 0-3.53052444-0.24803555c-5.90506667-10.98524445-11.80330667-21.97048889-17.70723556-32.95687111-8.95317333-16.65934222-34.26531555-1.85230222-25.31669333 14.80135111 7.24081778 13.47470222 14.48391111 26.94826667 21.72586666 40.42296889-11.33909333 24.36664889-15.47491555 52.42083555-2.95822222 77.40074666 14.40995555 28.75392 43.16387555 44.12984889 73.96124445 49.05756445C437.25937778 781.56572445 485.43516445 838.54222222 533.61095111 896.56888889H419.84c-20.48 0-20.48 28.44444445 0 28.44444444h322.17201778c0.58709333 0 1.09795555 0.15928889 1.64977777 0.10808889 4.65237333 0.20707555 9.34798222-1.68846222 12.39153778-6.97002667 60.33749333-104.73585778 120.67612445-209.40344889 181.01475556-314.13816888 1.78062222 0.26282667 3.57034667 0.48469333 5.36120889 0.58254222 28.44558222 1.53144889 49.41596445-22.78627555 52.82360889-48.86983111 0.31971555-1.33575111 0.52224-2.74318222 0.43463111-4.35882667 0.08419555-1.58492445-0.10922667-2.98552889-0.41642667-4.30421333z m-286.12266666 104.51854222c9.70296889-18.50595555 26.40668445-27.73447111 45.58734222-32.36408889 9.45379555 18.18396445 13.94460445 38.50126222 4.18474666 57.98456889-8.52423111 17.01205333-26.3168 25.32352-44.17422222 29.52874667-9.07036445-17.50812445-12.67256889-35.7888-5.59786666-55.14922667z m-321.89098667 40.73016889c-0.59164445 0.33678222-1.16280889 0.71907555-1.71463111 1.13891556-16.14051555-3.96970667-31.12504889-11.28106667-40.96682667-25.57610667-13.20504889-19.17610667-7.95761778-42.39928889 2.00931555-61.68576 19.17383111 4.63075555 35.87299555 13.85927111 45.57255112 32.35953777 6.88583111 18.85184 3.64999111 36.67854222-4.90040889 53.76341334z m167.96899555-414.17159111c-15.37365333-12.27662222-27.04611555-27.89376-27.69806222-48.33166223-0.00113778-0.05461333-0.01706667-0.09671111-0.01934222-0.15132444 0.00113778-0.0512 0.01706667-0.09216 0.01934222-0.14336 0.77482667-20.47544889 12.67598222-35.68867555 28.17820444-47.86176 15.44192 12.28913778 27.18378667 27.92675555 27.84142223 48.42496 0.64170667 20.00668445-13.03210667 35.74442667-28.32156445 48.06314667zM918.49272889 551.36711111c-1.66456889-30.88725333 46.21653333-30.71886222 47.87086222 0-1.66229333 30.87473778-46.20856889 30.87473778-47.87086222 0z" fill="#24292e" p-id="1501"></path><path d="M687.50336 501.56088889l44.80796445-76.96497778c0.52337778-0.04664889 1.04334222-0.07964445 1.57809777-0.16042666 29.99068445-4.54542222 57.37358222-18.51392 73.15797333-45.2050489 16.57173333-28.02232889 9.76782222-61.92696889-4.99029333-89.09368888 7.00757333-13.04234667 14.01514667-26.08355555 21.02385778-39.12362667 8.94862222-16.65251555-16.36693333-31.46069333-25.32010667-14.80135111l-21.83509333 40.63345778c-29.22040889 5.58990222-56.07537778 20.69390222-69.83793778 48.16099555a16.69916445 16.69916445 0 0 0-0.97166222 2.42574223c-0.17294222 0.35271111-0.35157333 0.70200889-0.50631111 1.07747555-10.49941333 25.50556445-6.16903111 52.20807111 5.44426666 76.02631111-15.95733333 27.40679111-31.91352889 54.81585778-47.86972444 82.22378667-9.53344 16.37717333 15.81283555 31.13073778 25.31896889 14.80135111z m44.45070222-162.75000889c9.70296889-18.50595555 26.40668445-27.73447111 45.58734223-32.36408889 9.45379555 18.18396445 13.94460445 38.50126222 4.18474666 57.98456889-8.52309333 17.01205333-26.3168 25.32352-44.17422222 29.52874667-9.07036445-17.50812445-12.67143111-35.7888-5.59786667-55.14922667z" fill="#24292e" p-id="1502"></path></svg>