<?xml version="1.0" standalone="no"?><!DOCTYPE svg PUBLIC "-//W3C//DTD SVG 1.1//EN" "http://www.w3.org/Graphics/SVG/1.1/DTD/svg11.dtd"><svg t="1539082673570" class="icon" style="" viewBox="0 0 1024 1024" version="1.1" xmlns="http://www.w3.org/2000/svg" p-id="1499" xmlns:xlink="http://www.w3.org/1999/xlink" width="64" height="64"><defs><style type="text/css"></style></defs><path d="M140.72035555 719.07555555a202.88853333 202.88853333 0 0 0 405.68604445 0c0-110.22791111-202.79751111-399.49653333-202.79751111-399.49653333S140.72035555 608.84764445 140.72035555 719.07555555z m507.26684445-256.4096c87.92746667 0 159.10684445-68.17564445 159.10684445-152.3712S647.9872 5.91644445 647.9872 5.91644445 488.88035555 226.55431111 488.88035555 310.20373333s70.72426667 152.46222222 159.10684445 152.46222222zM748.65777778 662.36871111S632.96853333 827.84711111 632.96853333 890.74346667a115.96231111 115.96231111 0 0 0 231.92462222 0c0-63.71555555-115.96231111-228.37475555-115.9623111-228.37475556z m0 0" p-id="1500" fill="#24292e"></path></svg>