<?xml version="1.0" standalone="no"?><!DOCTYPE svg PUBLIC "-//W3C//DTD SVG 1.1//EN" "http://www.w3.org/Graphics/SVG/1.1/DTD/svg11.dtd"><svg t="1539082815727" class="icon" style="" viewBox="0 0 1024 1024" version="1.1" xmlns="http://www.w3.org/2000/svg" p-id="1500" xmlns:xlink="http://www.w3.org/1999/xlink" width="64" height="64"><defs><style type="text/css"></style></defs><path d="M613.07100615 796.10407595c23.47821739-43.60240242 39.01267627-104.20444615 32.41053184-187.86103979 0 0 142.29917696 100.62092971 12.92184462 289.18808121 0 0 205.86689081 52.48175787 262.99133497-192.76851655 51.66972928-222.14276779-94.83081273-352.08498859-202.68938809-364.63612587 0 0 81.99723122 71.22902585 43.12577707 150.84313031 0 0.05295787-168.10756323-96.31364779-163.76497494-314.27270315 0 0-32.30461383 19.98296405-61.9613093 58.13065274v363.57695829c49.37486677 52.74655061 76.96618496 121.92785294 76.96618383 195.66357504v2.11833515z m-165.21250475-159.19290141V139.54368626A121.96315819 121.96315819 0 0 0 326.05421909 17.72175133a121.96315819 121.96315819 0 0 0-121.83958869 121.82193493v497.38514091A198.68220302 198.68220302 0 0 0 127.31905706 793.96808818c0 109.57089565 89.14661262 198.71750941 198.71750941 198.7175094 109.60620203 0 198.77046727-89.14661262 198.77046727-198.7175094 0-61.67886393-28.54456889-119.47411342-76.94853234-157.05691364z m-121.80428231 308.04126607c-83.26823253 0-150.98435243-67.73377251-150.98435243-150.98435243a151.01965767 151.01965767 0 0 1 66.40981334-125.12300829c6.56683918-4.44850403 10.48576-11.84502557 10.48576-19.77112917V139.54368626a74.14173696 74.14173696 0 0 1 74.07112647-74.07112647 74.14173696 74.14173696 0 0 1 74.07112647 74.07112647v509.53026446c0 7.92610475 3.93657344 15.32262627 10.48576 19.77112917a151.01965767 151.01965767 0 0 1 66.4627712 125.12300829c0 83.25057991-67.75142627 150.96669981-151.01965767 150.9666998z m28.06794354-796.19399567c0-13.75152697-11.26248334-25.11992718-25.13757981-25.11992604A25.06696818 25.06696818 0 0 0 303.84700302 148.75844494v543.60015759a97.83178809 97.83178809 0 1 0 50.25750698-1.11212658V148.77609757z" p-id="1501"></path></svg>