<?xml version="1.0" standalone="no"?><!DOCTYPE svg PUBLIC "-//W3C//DTD SVG 1.1//EN" "http://www.w3.org/Graphics/SVG/1.1/DTD/svg11.dtd"><svg t="1534125767720" class="icon" style="" viewBox="0 0 1024 1024" version="1.1" xmlns="http://www.w3.org/2000/svg" p-id="4171" xmlns:xlink="http://www.w3.org/1999/xlink" width="64" height="64"><defs><style type="text/css"></style></defs><path d="M108.128 347.504h127.696v-61.072H47.072V485.44h61.056zM295.696 286.432h127.344v61.056h-127.344zM47.072 539.44h61.056v248.752H47.072zM46.96 840.944h300.672v61.024H46.96zM966 38.544H480.416c-14.384 0-26.032 10.336-26.032 23.104v308.144c0 12.752 11.648 23.104 26.032 23.104h164.72v38.528l-34.656 30.816v7.68h225.44v-7.68l-34.672-30.816v-38.528h164.752c14.352 0 26-10.352 26-23.104V61.648c0-12.768-11.648-23.104-26-23.104z m-24.672 292.72H501.376V85.168h439.952v246.096zM900.656 579.856H542.08c-7.904 0-14.336 4.608-14.336 10.32v154.464h19.728c-5.92-5.44-9.168-12.128-9.168-19.168 0-8.32 4.496-16.16 12.688-22.048 1.68-1.216 3.536-2.304 5.456-3.28v-99.632h329.872v7.424l-150.592 78.784V1024l151.456-79.216c1.92 4.096 7.216 7.024 13.504 7.024 7.92 0 14.336-4.624 14.336-10.336V590.176c-0.016-5.712-6.432-10.32-14.368-10.32z m-108.048 283.328c-6.736 0-12.384-6-13.856-14.048h-16.16v-9.04h16.4c1.696-7.568 7.104-13.136 13.616-13.136 7.84 0 14.224 8.128 14.224 18.144 0.016 9.984-6.368 18.08-14.224 18.08z m-241.616-14.928c1.68 1.216 3.536 2.304 5.456 3.296v89.92c0 5.712-6.448 10.336-14.352 10.336s-14.336-4.624-14.336-10.336v-134.448h19.728c-13.28 12.224-12.128 29.984 3.504 41.232z m102.608-82c5.68 4.112 5.68 10.752 0 14.88l-69.888 50.352a17.92 17.92 0 0 1-10.336 3.088 18 18 0 0 1-10.336-3.088c-5.696-4.112-5.68-10.752 0-14.88l45.008-32.4h-145.664c-8.032 0-14.576-4.72-14.576-10.512s6.544-10.496 14.624-10.496h145.632l-45.008-32.416c-5.68-4.096-5.696-10.768 0-14.88 5.712-4.096 14.976-4.096 20.672 0l69.872 50.352z" p-id="4172"></path></svg>