<?xml version="1.0" standalone="no"?><!DOCTYPE svg PUBLIC "-//W3C//DTD SVG 1.1//EN" "http://www.w3.org/Graphics/SVG/1.1/DTD/svg11.dtd"><svg t="1539082728693" class="icon" style="" viewBox="0 0 1024 1024" version="1.1" xmlns="http://www.w3.org/2000/svg" p-id="1499" xmlns:xlink="http://www.w3.org/1999/xlink" width="64" height="64"><defs><style type="text/css"></style></defs><path d="M172.18370333 26.54814777a97.09036999 97.09036999 0 0 0-97.09037 97.09037113c0 18.20444445 4.95160889 35.53507555 13.64119666 50.05008555a71.84687445 71.84687445 0 0 0 1.50490112 142.62575445A344.81644999 344.81644999 0 0 0 75.09333333 414.90963001c0 85.68225223 33.78744889 137.18869333 48.54518557 157.77185109v40.97213668A75.14794667 75.14794667 0 0 0 99.36592555 609.09036999 72.81777778 72.81777778 0 0 0 26.54814777 681.90814777a71.84687445 71.84687445 0 0 0 62.18638222 71.3128778C80.04494222 767.78458112 75.09333333 785.06666667 75.09333333 803.27111111a97.09036999 97.09036999 0 0 0 194.18074112 0c26.94257778 0 48.54518557 21.60260779 48.54518443 48.54518556 0 79.85683001 65.77872555 145.63555555 145.63555555 145.63555556h97.09037114c79.85683001 0 145.63555555-65.77872555 145.63555555-145.63555556 0-26.94257778 21.60260779-48.54518557 48.54518443-48.54518556a97.09036999 97.09036999 0 0 0 194.18074112 0c0-18.20444445-4.95160889-35.53507555-13.64119666-50.05008554A71.84687445 71.84687445 0 0 0 997.45185223 681.90814777a72.81777778 72.81777778 0 0 0-72.81777778-72.81777778c-8.39831666 0-16.79663445 1.94180779-24.27259335 4.56324779v-40.97213668c14.75773667-20.5831589 48.54518557-72.0896 48.54518557-157.77185109 0-34.56417223-5.82542222-66.99235555-15.19464334-98.59527111a71.84687445 71.84687445 0 1 0 1.50490112-142.62575445c8.73813333-14.56355555 13.68974222-31.8456411 13.68974222-50.05008555a96.94473443 96.94473443 0 1 0-189.61749334-28.83584A477.24771555 477.24771555 0 0 0 512 26.54814777c-90.68240555 0-176.46174777 25.24349667-247.28917333 68.25453113A96.94473443 96.94473443 0 0 0 172.18370333 26.54814777z m339.81629667 97.09037113c190.78257778 0 339.81629667 131.80017778 339.81629667 291.27111111 0 69.41961443-37.91379001 115.29481443-37.91379 115.29481444l-10.63139556 12.13629667V657.63555555c0 26.94257778-21.60260779 48.54518557-48.54518556 48.54518557-79.85683001 0-145.63555555 65.77872555-145.63555556 145.63555555 0 26.94257778-21.60260779 48.54518557-48.54518442 48.54518443h-97.09037114c-26.94257778 0-48.54518557-21.60260779-48.54518442-48.54518443 0-79.85683001-65.77872555-145.63555555-145.63555556-145.63555555-26.94257778 0-48.54518557-21.60260779-48.54518556-48.54518557v-115.29481443l-10.63139556-12.13629667S172.18370333 484.32924445 172.18370333 414.90963001c0-159.47093333 149.0337189-291.27111111 339.81629667-291.27111111z m-145.63555555 339.81629553c-53.39970333 0-97.09036999 43.69066667-97.09037 97.09037114s19.41807445 97.09036999 72.81777778 97.09036998 121.36296334-43.69066667 121.3629622-97.09036998-43.69066667-97.09036999-97.09036998-97.09037114z m291.2711111 0c-53.39970333 0-97.09036999 43.69066667-97.09036998 97.09037114s67.96325888 97.09036999 121.3629622 97.09036998 72.81777778-43.69066667 72.81777778-97.09036998-43.69066667-97.09036999-97.09037-97.09037114z m-145.63555555 194.18074112c-19.41807445 4.8545189-57.67168 73.40032-57.67168 112.28501334 0 19.41807445 9.70903666 28.78729443 24.27259221 28.78729444 19.41807445 0 33.39908779-20.00061667 33.39908779-39.41869 0 14.56355555 13.93246777 39.41868999 33.39908779 39.41869 9.70903666 0 24.27259221-9.41776555 24.27259221-28.78729444 0-38.83614777-38.25360555-107.43049443-57.67168-112.28501334z" p-id="1500" fill="#24292e"></path></svg>