<?xml version="1.0" standalone="no"?><!DOCTYPE svg PUBLIC "-//W3C//DTD SVG 1.1//EN" "http://www.w3.org/Graphics/SVG/1.1/DTD/svg11.dtd"><svg t="1548236856154" class="icon" style="" viewBox="0 0 1024 1024" version="1.1" xmlns="http://www.w3.org/2000/svg" p-id="3362" xmlns:xlink="http://www.w3.org/1999/xlink" width="200" height="200"><defs><style type="text/css"></style></defs><path d="M961.536 587.648c-20.821333 0-37.717333 17.109333-37.717333 38.186667 0 21.077333 16.896 38.186667 37.717333 38.186667s37.717333-17.109333 37.717333-38.186667C999.253333 604.714667 982.357333 587.648 961.536 587.648zM923.818667 432.042667c0 21.12 16.896 38.186667 37.717333 38.186667s37.717333-17.109333 37.717333-38.186667c0-21.077333-16.896-38.186667-37.717333-38.186667S923.818667 410.965333 923.818667 432.042667zM619.605333 935.125333c-21.333333 0-38.656 17.322667-38.656 38.656s17.322667 38.656 38.656 38.656 38.656-17.322667 38.656-38.656S640.981333 935.125333 619.605333 935.125333zM886.058667 741.376c-20.821333 0-37.717333 17.322667-37.717333 38.656s16.896 38.656 37.717333 38.656 37.717333-17.322667 37.717333-38.656S906.922667 741.376 886.058667 741.376zM366.378667 546.090667c-22.357333 18.389333-39.466667 34.602667-51.285333 48.597333-11.818667 13.994667-20.437333 28.245333-25.813333 42.666667-3.328 8.746667-4.864 17.877333-4.565333 27.349333l211.114667 0 0-37.888L339.114667 626.816c4.352-7.168 9.856-14.250667 16.554667-21.333333 6.698667-7.082667 21.802667-20.522667 45.312-40.405333 28.16-23.936 48.341333-42.752 60.458667-56.490667 12.117333-13.696 20.821333-26.794667 26.026667-39.168 5.248-12.416 7.850667-25.045333 7.850667-37.888 0-25.258667-8.917333-46.421333-26.794667-63.488-17.877333-17.066667-42.112-25.6-72.746667-25.6-30.378667 0-54.528 7.893333-72.533333 23.765333-18.005333 15.829333-28.416 38.869333-31.146667 69.077333l40.32 4.138667c0.128-20.138667 5.888-35.882667 17.194667-47.274667 11.349333-11.392 26.453333-17.066667 45.312-17.066667 17.877333 0 32.341333 5.376 43.477333 16.085333 11.093333 10.709333 16.682667 23.893333 16.682667 39.509333 0 14.890667-6.101333 30.677333-18.304 47.402667C424.533333 494.848 401.066667 517.504 366.378667 546.090667zM771.456 856.874667c-20.821333 0-37.717333 17.536-37.717333 39.125333 0 21.632 16.896 39.125333 37.717333 39.125333 20.821333 0 37.717333-17.536 37.717333-39.125333C809.216 874.410667 792.32 856.874667 771.456 856.874667zM961.237333 316.501333c-74.496-181.632-250.666667-309.290667-456.234667-309.290667-272.981333 0-494.250667 225.024-494.250667 502.656 0 277.589333 221.269333 502.613333 494.250667 502.613333 0.170667 0 0.298667-0.042667 0.469333-0.042667l0-68.949333C269.269333 943.232 77.866667 748.8 77.866667 508.885333c0-240.042667 191.658667-434.602667 428.117333-434.602667 168.277333 0 313.472 98.816 383.445333 242.218667L961.237333 316.501333zM745.856 551.765333 702.72 551.765333 702.72 343.850667 670.72 343.850667l-145.749333 207.957333 0 36.138667 138.538667 0 0 76.842667 39.210667 0 0-76.842667 43.136 0L745.856 551.765333zM663.509333 551.765333l-100.010667 0 100.010667-144.682667L663.509333 551.765333z" p-id="3363"></path></svg>