<?xml version="1.0" standalone="no"?><!DOCTYPE svg PUBLIC "-//W3C//DTD SVG 1.1//EN" "http://www.w3.org/Graphics/SVG/1.1/DTD/svg11.dtd"><svg t="1539082698917" class="icon" style="" viewBox="0 0 1024 1024" version="1.1" xmlns="http://www.w3.org/2000/svg" p-id="1505" xmlns:xlink="http://www.w3.org/1999/xlink" width="64" height="64"><defs><style type="text/css"></style></defs><path d="M648.8 8C447.2 8 283.2 172 283.2 373.6c0 93.6 35.2 179.2 93.6 244L12 981.6c-8 8-8 20.8 0 28 4 4 8.8 5.6 14.4 5.6s10.4-1.6 14.4-5.6l131.2-131.2L280 992.8c4 4 9.6 6.4 14.4 6.4 4.8 0 9.6-1.6 13.6-5.6 8-7.2 8.8-20 0.8-28L200 849.6l204.8-204.8c64.8 58.4 150.4 93.6 244 93.6 201.6 0 365.6-164 365.6-365.6C1013.6 172 849.6 8 648.8 8z m0 691.2c-179.2 0-325.6-146.4-325.6-325.6C323.2 193.6 468.8 48 648.8 48c179.2 0 325.6 146.4 325.6 325.6-0.8 179.2-146.4 325.6-325.6 325.6z" p-id="1506" fill="#24292e"></path></svg>