<?xml version="1.0" standalone="no"?><!DOCTYPE svg PUBLIC "-//W3C//DTD SVG 1.1//EN" "http://www.w3.org/Graphics/SVG/1.1/DTD/svg11.dtd"><svg t="1534835055359" class="icon" style="" viewBox="0 0 1024 1024" version="1.1" xmlns="http://www.w3.org/2000/svg" p-id="2621" xmlns:xlink="http://www.w3.org/1999/xlink" width="64" height="64"><defs><style type="text/css"></style></defs><path d="M870.592 775.936c0 3.456 3.008 6.656 6.272 6.656 3.264 0 6.272-3.2 6.272-6.656 0-3.456-3.008-6.592-6.272-6.592-3.264 0-6.272 3.2-6.272 6.592m-137.92 150.72c0 3.456 1.344 6.848 3.648 9.28 2.304 2.432 5.568 3.84 8.768 3.84a12.16 12.16 0 0 0 8.832-3.84 13.76 13.76 0 0 0 0-18.56 12.224 12.224 0 0 0-8.832-3.84 12.16 12.16 0 0 0-8.768 3.84 13.696 13.696 0 0 0-3.648 9.28m-185.92 77.568c0 5.12 2.048 10.304 5.504 14.016 3.456 3.648 8.32 5.76 13.184 5.76a18.368 18.368 0 0 0 13.184-5.76 20.608 20.608 0 0 0 0-27.968 18.368 18.368 0 0 0-13.184-5.824 18.368 18.368 0 0 0-13.184 5.76 20.608 20.608 0 0 0-5.504 14.016m-200.128-10.368a27.52 27.52 0 0 0 7.296 18.56c4.608 4.864 11.072 7.68 17.6 7.68a24.448 24.448 0 0 0 17.536-7.68 27.456 27.456 0 0 0 0-37.184 24.448 24.448 0 0 0-17.536-7.68 24.448 24.448 0 0 0-17.6 7.68 27.52 27.52 0 0 0-7.296 18.56m-177.536-96.448c0 8.64 3.392 17.216 9.152 23.296 5.76 6.08 13.824 9.6 21.952 9.6a30.592 30.592 0 0 0 22.016-9.6 34.368 34.368 0 0 0 0-46.592 30.592 30.592 0 0 0-22.016-9.6 30.592 30.592 0 0 0-21.952 9.6 34.368 34.368 0 0 0-9.152 23.296M46.144 733.44c0 10.368 4.032 20.608 10.88 27.968 6.976 7.296 16.64 11.52 26.432 11.52a36.736 36.736 0 0 0 26.432-11.52 41.28 41.28 0 0 0 0-55.936 36.736 36.736 0 0 0-26.432-11.584 36.8 36.8 0 0 0-26.368 11.52 41.28 41.28 0 0 0-10.944 28.032M0 531.968c0 12.096 4.672 24.064 12.8 32.64a42.88 42.88 0 0 0 30.72 13.44 42.88 42.88 0 0 0 30.784-13.44 48.128 48.128 0 0 0 0-65.216 42.88 42.88 0 0 0-30.72-13.44 42.88 42.88 0 0 0-30.848 13.44 48.128 48.128 0 0 0-12.736 32.64m37.952-200.128c0 13.824 5.376 27.52 14.592 37.312a48.96 48.96 0 0 0 35.2 15.36 48.96 48.96 0 0 0 35.2-15.36 54.976 54.976 0 0 0 0-74.56 48.96 48.96 0 0 0-35.2-15.424 48.96 48.96 0 0 0-35.2 15.424 54.976 54.976 0 0 0-14.592 37.248m113.92-161.28c0 15.552 6.016 30.976 16.384 41.92 10.368 11.008 24.96 17.408 39.68 17.408 14.592 0 29.184-6.4 39.552-17.408a61.888 61.888 0 0 0 0-83.84 55.104 55.104 0 0 0-39.616-17.408c-14.656 0-29.248 6.4-39.616 17.408a61.888 61.888 0 0 0-16.384 41.92m167.232-92.416c0 17.28 6.72 34.368 18.24 46.592 11.52 12.16 27.712 19.264 43.968 19.264 16.256 0 32.448-7.04 43.968-19.264a68.672 68.672 0 0 0 0-93.184 61.248 61.248 0 0 0-43.968-19.264 61.248 61.248 0 0 0-43.968 19.264c-11.52 12.224-18.24 29.376-18.24 46.592m187.84-5.76c0 19.008 7.36 37.888 20.032 51.264 12.672 13.44 30.528 21.248 48.448 21.248s35.712-7.808 48.384-21.248a75.584 75.584 0 0 0 0-102.464A67.392 67.392 0 0 0 575.36 0c-17.92 0-35.776 7.808-48.448 21.248-12.672 13.44-20.032 32.256-20.032 51.2m171.968 81.92c0 20.736 8.064 41.28 21.888 55.936 13.824 14.592 33.28 23.104 52.736 23.104 19.584 0 39.04-8.512 52.8-23.104a82.432 82.432 0 0 0 0-111.744 73.472 73.472 0 0 0-52.8-23.168c-19.52 0-38.912 8.512-52.736 23.168-13.824 14.592-21.888 35.2-21.888 55.872m122.24 153.856c0 22.4 8.704 44.736 23.68 60.544 14.976 15.872 36.032 25.088 57.216 25.088 21.12 0 42.24-9.216 57.152-25.088a89.344 89.344 0 0 0 0-121.088 79.616 79.616 0 0 0-57.152-25.088c-21.184 0-42.24 9.216-57.216 25.088-14.976 15.872-23.68 38.144-23.68 60.544m48.64 199.36c0 24.128 9.344 48.128 25.472 65.28 16.128 17.024 38.784 26.944 61.632 26.944 22.784 0 45.44-9.92 61.568-27.008a96.256 96.256 0 0 0 0-130.432 85.76 85.76 0 0 0-61.568-27.072c-22.848 0-45.44 9.984-61.632 27.072a96.192 96.192 0 0 0-25.536 65.216" p-id="2622"></path></svg>