<?xml version="1.0" standalone="no"?><!DOCTYPE svg PUBLIC "-//W3C//DTD SVG 1.1//EN" "http://www.w3.org/Graphics/SVG/1.1/DTD/svg11.dtd"><svg t="1539136037953" class="icon" style="" viewBox="0 0 1024 1024" version="1.1" xmlns="http://www.w3.org/2000/svg" p-id="1529" xmlns:xlink="http://www.w3.org/1999/xlink" width="64" height="64"><defs><style type="text/css"></style></defs><path d="M144.7 684.994h167.18V359.238H144.7v325.756z m773.674-244.313v-81.443c0-44.791-36.65-81.438-81.438-81.438H144.7c-44.791 0-81.438 36.647-81.438 81.438v325.756c0 44.791 36.647 81.443 81.438 81.443h692.236c44.788 0 81.438-36.65 81.438-81.443v-81.438c22.396 0 40.72-18.322 40.72-40.72V481.4c0-22.396-18.324-40.72-40.72-40.72z m-40.719 40.72V684.993c0 22.395-18.323 40.718-40.719 40.718H144.7c-22.396 0-40.72-18.323-40.72-40.718V359.238c0-22.396 18.324-40.72 40.72-40.72h692.236c22.396 0 40.72 18.324 40.72 40.72V481.4z m0 0" p-id="1530"></path></svg>