<?xml version="1.0" standalone="no"?><!DOCTYPE svg PUBLIC "-//W3C//DTD SVG 1.1//EN" "http://www.w3.org/Graphics/SVG/1.1/DTD/svg11.dtd"><svg t="1548236841058" class="icon" style="" viewBox="0 0 1024 1024" version="1.1" xmlns="http://www.w3.org/2000/svg" p-id="3250" xmlns:xlink="http://www.w3.org/1999/xlink" width="200" height="200"><defs><style type="text/css"></style></defs><path d="M258.3 290c-4.1-8.2-4.8-17.5-1.9-26.2 3-8.7 9-15.8 17.3-19.8 8-4 16.4-7.7 24.9-10.6 3.8-1.4 7.6-1.9 11.4-1.9 18.8 0 34.1 15.1 34.3 33.9 0.2 14.8-9.1 28-23 32.8-5.8 2.1-11.6 4.5-17.1 7.2-4.8 2.4-10 3.7-15.3 3.7-12.9-0.1-24.8-7.5-30.6-19.1z m17 136.1c-6.3-9.6-17-15.3-28.5-15.2-6.8 0-13.4 1.9-19.1 5.8-7.6 5.1-12.8 12.9-14.6 21.9-1.8 8.9 0.1 18.2 5.2 25.7 4.7 7 9.8 14 15.5 20.8 6.5 8.1 16.3 12.8 26.7 12.8 7.9 0 15.5-2.7 21.6-7.7 7.1-5.7 11.6-14 12.5-23.1 1-9.1-1.6-18.1-7.4-25.2-4.4-5.2-8.3-10.6-11.9-15.8z m-59-32.3c1 0 2.2 0.1 3.3 0.1 17.7 0 32.4-13.3 34.2-31 0.1-2.3 0.6-4.7 1.3-7.2 0.5-1.8 1-3.7 1.8-5.6 1.6-4 2.4-8.2 2.4-12.6 0-14.2-8.5-26.7-21.6-31.9-8.5-3.4-17.9-3.3-26.3 0.2-8.4 3.6-15 10.4-18.3 18.9-1.7 4.5-3.2 9-4.5 13.7-1.5 5.8-2.6 11.8-3.2 17.9-0.9 9.2 1.8 18.1 7.7 25.1 5.8 7 14.1 11.5 23.2 12.4z m378.5-21.1c2.6 1.6 4.6 2.9 5.7 3.5 4 2.5 8.4 5.1 12.8 8 5.5 3.6 11.9 5.4 18.4 5.4 11.8 0 22.7-6 29-15.9 3.6-5.5 5.4-11.9 5.4-18.4 0-11.8-6-22.7-15.8-29l-0.2-0.1c-4.8-3.1-9.5-6-13.5-8.5-2.2-1.4-4.5-2.8-6.8-4-5.3-3.2-11.3-4.9-17.5-4.9-12 0-23.3 6.5-29.5 16.8-4.7 7.9-6 17.2-3.8 26 2.3 9 7.9 16.4 15.8 21.1z m-199.5-79.4c6.4 0.9 13.2 2.2 20.3 3.8 2.4 0.6 4.9 0.8 7.3 0.8 16 0 30.1-11.3 33.5-26.9 0.6-2.6 0.8-5.3 0.8-7.8-0.1-16.1-11.2-29.8-26.9-33.2-8.2-1.8-16.6-3.3-24.8-4.6-18.5-2.9-36.3 10.4-39 28.8-2.9 18.7 10.2 36.2 28.8 39.1z m101.4 30.3c7.7 3.2 14.3 6.1 20.1 8.7 17.3 7.7 37.6 0.1 45.4-17.2 1.9-4.5 3-9.3 3-14.2 0-13.4-7.9-25.8-20.1-31.2-7.9-3.5-15.1-6.8-22-9.5-4.2-1.8-8.6-2.7-13.2-2.6-14 0-26.4 8.2-31.7 21.1-7.2 17.5 1.1 37.6 18.5 44.9z m-66.6 216.6c-15.8 0-29.5 10.6-33.3 26-0.8 2.9-1.1 5.7-1 8.6 0 15.7 10.8 29.3 26 33.1 8.1 2.1 16.6 3.8 25.1 5.3 1.8 0.2 3.8 0.5 5.7 0.5 16.8 0 31-12 33.8-28.7 3.1-18.7-9.5-36.3-28.2-39.5-6.9-1.1-13.3-2.5-19.7-4.1-2.8-0.9-5.6-1.2-8.4-1.2z m263.8 282.3c-6.1 0-12 1.6-17.2 4.6-5.1 3-10.6 5.7-16.6 8.2-8.5 3.5-15 10.2-18.4 18.8-3.6 8.5-3.4 17.7 0.1 26.2 3.5 8.4 10.2 15.1 18.7 18.5 8.4 3.4 17.9 3.4 26.3-0.2 8.6-3.7 16.8-7.7 24.4-12.1 10.6-6.2 17.2-17.6 17.1-29.9 0-6-1.6-11.9-4.6-17.1-6.2-10.5-17.5-16.9-29.8-17z m17.8-152.1c2.5 5 4.9 10.8 7 16.8 2.9 8.7 9.1 15.8 17.2 19.9 8.2 4.1 17.6 4.7 26.3 1.8 17.9-6.1 27.6-25.5 21.6-43.5-3-8.8-6.5-17.3-10.4-25.4-5.8-11.7-17.8-19.2-30.9-19.1-5.3 0-10.4 1.1-15.1 3.5-11.8 5.7-19.3 18-19.2 31.1 0 5.2 1.2 10.1 3.5 14.9z m-46.3-47.7c4.5 1.9 9.2 3 14 3 13.6 0 25.9-8 31.5-20.4 3.7-8.4 3.9-17.7 0.7-26.2-3.3-8.5-9.8-15.4-18.1-19.1-8.7-3.9-18.1-7-27.7-9.3-18.3-4.5-37.1 7.3-41.4 25.4-0.6 2.5-0.9 5.2-0.9 7.8-0.1 16 10.8 29.9 26.4 33.5 5.7 1.5 10.8 3.1 15.5 5.3z m98.9 110.2c-18.5-3.4-36.6 9.2-40.1 27.5-1.1 6.1-2.6 11.8-4.5 17.1-6.3 17.9 3.1 37.4 20.9 43.7 17.9 6.3 37.4-3.1 43.7-20.9 3.1-8.6 5.5-17.7 7.3-27.2 3.7-18.8-8.6-36.7-27.3-40.2z m-180 117.5h-0.6c-6.6 0.2-13.3-0.1-19.9-0.6-18.9-1.2-35.3 12.9-36.7 31.8-1.3 18.9 12.9 35.3 31.8 36.7 7.1 0.5 14.3 0.7 21.5 0.7h4.3c18.4-0.2 33.5-15.5 33.8-33.9v-0.9c-0.2-18.6-15.7-33.8-34.2-33.8z m-38.7-233.3c7-0.5 13.8-0.8 20.5-1.3l2.6-0.1c9.2-0.7 17.6-4.7 23.7-11.6 6.1-7 9-15.8 8.5-25-0.6-9.1-4.7-17.6-11.5-23.6s-15.8-9.1-24.8-8.5l-2.9 0.1c-6.2 0.5-12.4 0.8-18.5 1.1h-1.1l-0.5 0.1c-18 1.1-32.1 16.1-32 34.2 0 0.6 0 1.1 0.1 1.8 0.9 18.2 16 32.5 34.2 32.5h1.7zM415 755.7c-8.6-7.7-18-13.7-27.9-18.1-4.5-1.9-9-3-13.9-3-13.6 0-26 8-31.5 20.4-3.7 8.4-3.9 17.7-0.7 26.3 3.3 8.5 9.7 15.2 18.2 19 3.7 1.7 6.8 3.7 10.2 6.8 14.3 12.5 35.9 11.2 48.5-3 5.5-6.2 8.6-14.1 8.6-22.3 0.2-10-4-19.5-11.5-26.1z m-39.6-199c4.9-7.8 6.4-17.1 4.4-26-2.1-8.9-7.6-16.5-15.3-21.4-5.8-3.6-11.7-7.4-17.2-11.4-15-10.6-37.3-6.9-48 8-4.1 5.8-6.4 12.7-6.4 19.8 0 11.1 5.4 21.6 14.4 28.2 6.9 4.8 13.8 9.5 20.9 13.8 5.4 3.4 11.7 5.1 18 5.1 12 0 22.9-6.1 29.2-16.1z m114 273.5c-5.5-3-10.5-6.1-15.1-9.4-14.8-10.9-37.2-7.3-48 7.4-5.4 7.3-7.7 16.5-6.3 25.5 1.4 9 6.3 17.1 13.6 22.5 7.3 5.4 15.3 10.3 23.8 14.8 4.9 2.6 10.4 3.9 15.9 3.9 12.8 0 24.5-7 30.4-18.3 4.3-8.1 5.2-17.5 2.4-26.2-2.5-8.7-8.6-16-16.7-20.2z m-182.8-27c4.9 12.8 7.7 26.6 7.7 41.1 0 63.6-51.8 115.5-115.5 115.5S83.3 907.9 83.3 844.3s51.8-115.5 115.5-115.5c23.3 0 46 7.1 65.2 20.3 1.7-1 3.5-1.9 5.3-2.9l0.3-0.2c4.8-2.4 10-3.5 15.2-3.5 13.1-0.1 25 7.3 30.8 19 2.3 4.7 3.5 9.6 3.7 14.9 0.1 10.4-4.7 20.3-12.7 26.8z m-61 41.1c0-25.8-20.9-46.8-46.8-46.8S152 818.4 152 844.3s20.9 46.8 46.8 46.8 46.8-21.1 46.8-46.8z m695.1-645.4c0 12.5-6.7 23.9-17.6 30l-164.2 91.2v98.7c0 0.7-0.2 1.3-0.2 1.8 0.6 8.2-1.8 16.7-7.6 23.7-6.5 8-16.3 12.6-26.6 12.6-7.9 0-15.6-2.7-21.7-7.8-5.6-4.6-11.4-9.2-17.3-13.7-7.2-5.6-11.8-13.7-12.9-22.9-1.1-9 1.4-18.1 7-25.3 2.9-3.8 6.5-6.6 10.6-8.8V98c0-12.1 6.4-23.5 16.8-29.5 10.5-6.2 23.5-6.3 34.1-0.5l182 100.8c10.8 6.2 17.6 17.6 17.6 30.1z m-105.1 0l-76.8-42.6v85.3l76.8-42.7z" p-id="3251"></path></svg>