<?xml version="1.0" standalone="no"?><!DOCTYPE svg PUBLIC "-//W3C//DTD SVG 1.1//EN" "http://www.w3.org/Graphics/SVG/1.1/DTD/svg11.dtd"><svg t="1539082416782" class="icon" style="" viewBox="0 0 1024 1024" version="1.1" xmlns="http://www.w3.org/2000/svg" p-id="1499" xmlns:xlink="http://www.w3.org/1999/xlink" width="64" height="64"><defs><style type="text/css"></style></defs><path d="M87.788308 492.307692C71.936 492.307692 59.076923 479.07446199 59.076923 462.769231S71.936 433.230769 87.788308 433.230769h848.423384c15.852308 0 28.71138501 13.233231 28.711385 29.538462s-12.859077 29.53846201-28.711385 29.538461H87.788308z" fill="#000000" p-id="1500"></path><path d="M119.296 794.289231H905.84615401V846.769231H60.928l-1.516308-24.812308c-3.03261501-49.723077 14.769231-88.064 51.06215401-117.248 26.23015401-21.070769 53.91753799-33.65415399 109.725539-53.681231l8.03446098-2.894769c89.856-32.196923 116.08615399-51.23938501 116.08615401-96.74830801h59.27384599c0 41.59015399-18.29415399 73.806769-52.460308 98.59938501-24.18215399 17.56553799-48.187077 28.00246201-100.667076 46.80861499l-8.01476999 2.87507701c-83.219692 29.85353799-117.12984599 51.59384601-123.155692 94.621539z" fill="#000000" p-id="1501"></path><path d="M648.60553801 551.38461499H590.769231c0 71.404308 39.81784601 102.163692 139.55938399 138.87015401l13.39077 4.92307699c5.27753801 1.91015399 9.33415399 3.42646201 13.25292301 4.90338501 94.58215401 35.48553799 130.42215401 68.76553799 130.42215401 146.688H945.230769c0-104.014769-52.38153801-152.67446201-166.203077-195.38707701-4.096-1.536-8.270769-3.07200001-13.68615399-5.06092299l-13.331692-4.90338501c-79.635692-29.28246199-103.38461499-47.65538501-103.38461501-90.03323098z" fill="#000000" p-id="1502"></path><path d="M374.15384599 344.61538501a29.53846201 29.53846201 0 0 1-59.07692299-2e-8l-0.74830799-128c0-81.723077 92.691692-177.230769 190.48369299-177.23077 100.17476899 0 190.483692 90.190769 190.48369199 177.23077002v128a29.53846201 29.53846201 0 0 1-59.07692299 0V216.61538501c0-53.504-63.01538501-118.15384601-131.406769-118.153847-65.57538501 0-131.406769 69.49415399-131.40677001 118.15384698L374.15384599 344.61538501z" fill="#000000" p-id="1503"></path><path d="M47.340308 47.340308m-47.340308 0a47.340308 47.340308 0 1 0 94.68061501 0 47.340308 47.340308 0 1 0-94.68061501 0Z" fill="#000000" p-id="1504"></path><path d="M976.659692 47.340308m-47.34030701 0a47.340308 47.340308 0 1 0 94.68061501 0 47.340308 47.340308 0 1 0-94.68061501 0Z" fill="#000000" p-id="1505"></path><path d="M47.340308 976.659692m-47.340308 0a47.340308 47.340308 0 1 0 94.68061501 0 47.340308 47.340308 0 1 0-94.68061501 0Z" fill="#000000" p-id="1506"></path><path d="M976.659692 976.659692m-47.34030701 0a47.340308 47.340308 0 1 0 94.68061501 0 47.340308 47.340308 0 1 0-94.68061501 0Z" fill="#000000" p-id="1507"></path></svg>