<?xml version="1.0" standalone="no"?><!DOCTYPE svg PUBLIC "-//W3C//DTD SVG 1.1//EN" "http://www.w3.org/Graphics/SVG/1.1/DTD/svg11.dtd"><svg t="1539917164210" class="icon" style="" viewBox="0 0 1024 1024" version="1.1" xmlns="http://www.w3.org/2000/svg" p-id="2806" xmlns:xlink="http://www.w3.org/1999/xlink" width="64" height="64"><defs><style type="text/css"></style></defs><path d="M274.20444445 299.12177778c48.24177778 0 86.92622222-38.57066667 86.92622222-86.92622223 0-48.24177778-38.57066667-86.92622222-86.92622222-86.92622222-48.24177778 0-86.92622222 38.57066667-86.92622223 86.92622222 0 48.35555555 38.68444445 86.92622222 86.92622223 86.92622223z m62.80533333-86.92622223c0 33.792-29.01333333 62.80533333-62.80533333 62.80533334-33.792 0-62.80533333-29.01333333-62.80533334-62.80533334 0-33.792 29.01333333-62.80533333 62.80533334-62.80533333 33.792 0.11377778 62.80533333 26.624 62.80533333 62.80533333z m415.17511111 86.92622223c48.24177778 0 86.92622222-38.57066667 86.92622222-86.92622223 0-48.24177778-38.57066667-86.92622222-86.92622222-86.92622222-48.24177778 0-86.92622222 38.57066667-86.92622222 86.92622222 0 48.35555555 38.68444445 86.92622222 86.92622222 86.92622223z m0-152.00711111c33.792 0 62.80533333 29.01333333 62.80533333 62.80533333 0 33.792-29.01333333 62.80533333-62.80533333 62.80533333-33.792 0-62.80533333-29.01333333-62.80533334-62.80533333 0-33.90577778 29.01333333-62.80533333 62.80533334-62.80533333z m0 0" p-id="2807"></path><path d="M76.23111111 1021.26933333h166.57066667c31.40266667 0 57.91288889-19.34222222 67.584-48.24177778h405.61777777c9.67111111 29.01333333 36.18133333 48.24177778 67.584 48.24177778h166.57066667c38.57066667 0 72.36266667-31.40266667 72.36266667-72.47644444V579.47022222c0-38.57066667-31.40266667-72.47644445-72.36266667-72.47644444H783.58755555c-31.40266667 0-57.91288889 19.34222222-67.584 48.24177777H533.16266667V417.45066667H749.79555555c113.43644445 0 207.64444445-94.208 207.64444445-207.64444445S863.232 2.16177778 749.79555555 2.16177778H276.59377778c-113.43644445 0-207.64444445 94.208-207.64444445 207.64444444s94.09422222 207.64444445 207.64444445 207.64444445h215.38133333v137.89866666H310.38577778c-9.67111111-29.01333333-36.18133333-48.24177778-67.584-48.24177778H76.23111111c-38.57066667 0-72.36266667 31.40266667-72.36266666 72.47644445V948.90666667c2.38933333 40.96 33.792 72.36266667 72.36266666 72.36266666z m239.04711111-439.40977778h398.336V951.18222222H315.27822222V581.85955555z m656.61155556 202.752v108.65777778H759.46666667v-108.65777778h212.42311111z m0-24.12088888H759.46666667V637.38311111h212.42311111v123.10755556z m-917.39022223 24.12088888h212.42311112v108.65777778H54.49955555v-108.65777778z m212.42311112-24.12088888H54.49955555V637.38311111h212.42311112v123.10755556z m-24.12088889 212.42311111H76.23111111c-12.06044445 0-24.12088889-9.67111111-24.12088889-24.12088889v-33.792h212.42311111v33.792c2.38933333 14.44977778-9.67111111 24.12088889-21.73155555 24.12088889z m707.35644444 0H783.58755555c-12.06044445 0-24.12088889-9.67111111-24.12088888-24.12088889v-33.792h212.42311111v33.792c0 14.44977778-9.67111111 24.12088889-21.73155556 24.12088889zM783.58755555 557.73866667h166.57066667c12.06044445 0 24.12088889 9.67111111 24.12088889 24.12088888V613.26222222H761.856v-31.40266667c-2.38933333-14.44977778 9.67111111-24.12088889 21.73155555-24.12088888zM276.59377778 52.90666667H749.79555555c86.92622222 0 159.28888889 72.47644445 159.2888889 159.28888888 0 86.92622222-72.36266667 159.28888889-159.2888889 159.2888889H276.59377778c-86.92622222 0-159.28888889-72.36266667-159.28888889-159.2888889 0-89.31555555 72.36266667-159.28888889 159.28888889-159.28888888zM76.23111111 557.73866667h166.57066667c12.06044445 0 24.12088889 9.67111111 24.12088889 24.12088888V613.26222222H54.49955555v-31.40266667c0-14.44977778 9.67111111-24.12088889 21.73155556-24.12088888z m0 0" p-id="2808"></path></svg>