<?xml version="1.0" standalone="no"?><!DOCTYPE svg PUBLIC "-//W3C//DTD SVG 1.1//EN" "http://www.w3.org/Graphics/SVG/1.1/DTD/svg11.dtd"><svg t="1539082372487" class="icon" style="" viewBox="0 0 1024 1024" version="1.1" xmlns="http://www.w3.org/2000/svg" p-id="1499" xmlns:xlink="http://www.w3.org/1999/xlink" width="64" height="64"><defs><style type="text/css"></style></defs><path d="M507.505392 0l-456.305392 456.305392h101.40119801v557.70658999h709.808388v-557.70658999h101.40119798l-456.30539199-456.305392z m-152.101797 557.70659001a50.700599 50.700599 0 1 1 0-101.40119801 50.700599 50.700599 0 0 1 0 101.40119801z m378.023666 15.36228199a158.084468 158.084468 0 0 0-96.12833502-31.94137799c-41.422389 0-75.036887 14.55107199-101.09699498 43.39971298-25.958707 28.79794-34.882012 49.99079101-34.882012 98.15636001 0 47.25295799 8.213497 70.27103001 32.75258699 97.04094701 24.488389 26.719216 57.595881 40.05347301 99.221072 40.05347299 35.186216 0 68.496509-11.610437 99.77877901-34.93271299v85.07560499c-31.28227001 18.80992198-68.952815 28.24023401-113.01163501 28.24023398-59.16759899 0-106.674061-19.11412599-142.62078499-57.24097598-35.946725-38.126851-53.945437-87.50923399-53.945438-148.197852 0-67.381096 19.367629-121.580037 58.204288-162.79962299 38.78595799-41.270288 90.703372-61.905431 155.75224-61.90543199 37.41704199 0 69.45982099 6.692479 96.128336 20.07743798v84.974204z" fill="" p-id="1500"></path></svg>