<?xml version="1.0" standalone="no"?><!DOCTYPE svg PUBLIC "-//W3C//DTD SVG 1.1//EN" "http://www.w3.org/Graphics/SVG/1.1/DTD/svg11.dtd"><svg t="1539082357253" class="icon" style="" viewBox="0 0 1024 1024" version="1.1" xmlns="http://www.w3.org/2000/svg" p-id="1499" xmlns:xlink="http://www.w3.org/1999/xlink" width="64" height="64"><defs><style type="text/css"></style></defs><path d="M760.55134815 356.65540741c-64.59745975 0-238.19504197 294.37800297-238.19504198 403.89594074 0 69.64615902 30.0332879 132.43126518 77.93120396 176.05720494H211.66712098V470.57477531c0-17.08790518-13.98101333-31.06891852-31.06891851-31.06891851h-43.88484741l374.12156049-340.20465778L662.81370864 253.09234569c12.03920592 12.16865975 31.71618765 12.29811358 43.88484741 0.25890764s12.29811358-31.71618765 0.25890765-43.88484741L534.00715061 34.57428543c-11.78029827-11.9097521-30.68055703-12.42756741-42.97867061-1.16508445l-455.67747161 414.25224692c-9.45012939 8.54395259-12.68647506 22.26605827-8.02613728 34.17581037 4.66033778 11.9097521 16.18172839 19.80643555 28.99765728 19.80643556h93.20675556v466.03377778c0 17.08790518 13.98101333 31.06891852 31.06891852 31.06891852h455.67747161c13.20429037 0 24.46677333-8.28504494 28.99765728-19.93588938C694.5298963 991.62642963 726.76389925 998.74639013 760.55134815 998.74639013c131.39563457 0 238.19504197-106.79940741 238.19504198-238.19504198 0-109.51793778-173.59758222-403.89594075-238.19504198-403.89594074z m0 579.95314568c-97.09037037 0-176.05720494-78.96683457-176.05720495-176.05720494 0-90.22931753 130.61891161-289.58821136 176.05720495-335.54432 45.43829333 45.95610864 176.05720494 245.31500247 176.05720494 335.54432 0 97.09037037-78.96683457 176.05720494-176.05720494 176.05720494z" p-id="1500"></path><path d="M902.30328889 755.50264889c-51.39316939-34.69362569-106.2815921-34.69362569-158.45148444-0.12945383-31.32782617 20.71261235-59.16039902 20.71261235-90.35877136 0-14.11046717-9.45012939-33.52854124-5.69596839-42.97867062 8.67340642-9.45012939 14.23992098-5.56651457 33.52854124 8.67340642 42.97867062 26.02021925 17.34681283 52.68770765 26.02021925 79.48464987 26.02021926 26.66748839 0 53.46443061-8.67340642 79.61410371-25.89076544 31.19837235-20.71261235 58.6425837-20.84206617 89.32314073-0.12945382 14.23992098 9.5795832 33.52854124 5.82542222 43.10812445-8.41449877s5.82542222-33.52854124-8.41449876-43.10812444zM429.14955061 426.17211259c0 47.38010075 37.15324839 85.82788741 82.85044939 85.82788741s82.85044939-38.44778667 82.85044939-85.82788741c0-36.11761778-43.3670321-121.29823605-82.85044939-121.29823606s-82.85044939 85.18061827-82.85044939 121.29823606z m124.27567408 0c0 24.46677333-18.51189728 44.40266272-41.42522469 44.40266272s-41.42522469-19.93588939-41.42522469-44.40266272c0-20.97152 27.44421136-69.25779753 41.42522469-78.96683456 13.98101333 9.70903703 41.42522469 57.99531457 41.42522469 78.96683456z" p-id="1501"></path></svg>