<?xml version="1.0" standalone="no"?><!DOCTYPE svg PUBLIC "-//W3C//DTD SVG 1.1//EN" "http://www.w3.org/Graphics/SVG/1.1/DTD/svg11.dtd"><svg t="1539082342772" class="icon" style="" viewBox="0 0 1024 1024" version="1.1" xmlns="http://www.w3.org/2000/svg" p-id="1499" xmlns:xlink="http://www.w3.org/1999/xlink" width="64" height="64"><defs><style type="text/css"></style></defs><path d="M0 733.83299999h877.232v140.28100001H0zM903.416 731.573h47.037v141.924h-47.037zM976.963 731.573H1024v141.924h-47.037zM950.533 708.346V643.95c0-16.294-2.544-31.848-8.12699999-46.131a100.30499999 100.30499999 0 0 0-43.99700001-51.18c-20.52100001-11.777-45.391-17.32-73.71099999-17.4H698.37100001c-20.68399999-0.16699999-34.311-7.92400001-44.90000001-20.44-10.34400001-12.437-16.417-30.577-16.417-48.677 0-13.624 3.366-26.963 9.77-37.717 4.35100001-7.51 4.267-16.827-0.166-24.21400001-4.514-7.387-12.80400001-11.697-21.424-11.20299998-3.283 0.203-6.483 0.287-9.521 0.28699999-37.104-0.083-62.793-12.76399999-80.28000001-30.617-17.483-17.731-26.43-41.495-26.42999999-63.78-0.163-21.957 6.157-47.322 19.70099999-65.216 6.729-9.03000001 15.103-16.417 26.02-21.875 10.837-5.376 24.381-8.825 42.02700001-8.825 12.89 0 23.477-10.58799999 23.47699999-23.517 0-13.05199999-10.587-23.559-23.47699999-23.559-23.967 0-45.144 4.967-62.957 13.874-26.84 13.297-45.22799999 35.13200001-56.228 58.239-11.163 23.394-15.513 48.182-15.59699999 70.79700001 0.083 34.599 13.543 69.85199999 39.81099998 96.73599998 22.08000001 22.61300001 53.273 38.82699999 91.27700001 43.46300001a125.24199999 125.24199999 0 0 0-2.953 27.047c0 28.074 8.86300001 56.31100001 27.087 78.677 18.223 22.287 47.033 37.75700001 81.264 37.514h126.244c29.634 0.08 48.841 7.797 60.414 18.63 5.993 5.461 10.34400001 11.943 13.463 20.031 3.117 7.963 4.92400001 17.646 4.92399999 29.05700001v64.47599999h47.03400001v-0.081z" fill="#040000" p-id="1500"></path><path d="M1023.75299999 708.346v-86.394c-0.083-50.93499999-17.977-101.45800002-51.79699998-140.038-33.653-38.66000001-84.134-64.721-144.95800001-64.557h-34.39399999c9.931-22.614 14.773-45.80399999 14.85699999-67.311 0.08-41.45199999-14.53-80.359-42.27400001-108.884-27.743-28.482-68.29400001-45.555-115.90399999-45.474a23.507 23.507 0 0 0-23.557 23.559c0 12.928 10.507 23.517 23.557 23.51699999 36.857 0.082 63.697 12.35400001 82.168 31.27400001 18.55 19.001 28.894 45.392 28.894 76.00899997 0.246 22.08000001-8.70000001 51.83700001-27.087 77.07700002-5.254 7.144-5.91 16.541-1.971 24.46 4.021 7.87999999 12.147 12.767 21.014 12.76700001h74.697c47.60700001 0.16399999 83.725 19.33000001 109.58099999 48.55 25.773 29.264 40.141 69.281 40.058 109.052v86.558h47.116v-0.165" fill="#040000" p-id="1501"></path></svg>