<?xml version="1.0" standalone="no"?><!DOCTYPE svg PUBLIC "-//W3C//DTD SVG 1.1//EN" "http://www.w3.org/Graphics/SVG/1.1/DTD/svg11.dtd"><svg t="1539082596999" class="icon" style="" viewBox="0 0 1024 1024" version="1.1" xmlns="http://www.w3.org/2000/svg" p-id="1739" xmlns:xlink="http://www.w3.org/1999/xlink" width="64" height="64"><defs><style type="text/css"></style></defs><path d="M512.14553657 1.99219541c-281.73145998 0-510.1300554 228.3916106-510.1300554 510.1300554 0 281.73145998 228.39743146 510.12306943 510.1300554 510.12307057 281.74426681 0 510.1300554-228.3916106 510.13005653-510.12307057-0.00116395-281.73844594-228.38578859-510.1300554-510.13005653-510.1300554z m318.83754269 822.51041792v-567.3493356H791.78592256l-129.57905351 236.24710826h110.25175552l26.56455566-48.50103865v149.71087986h-8.557568l-55.52173852 101.29949013h64.07814258v135.04425529h25.50854086c-80.50634524 78.88913975-190.76275883 127.53222315-312.38618454 127.53222315-121.6176037 0-231.87401728-48.64308339-312.38152644-127.53222315h25.42121754V695.90855339h68.66313672l55.52755939-101.29949128H239.12999026l-13.94592655 25.41772573v-134.01036003l125.51100644-228.95862216h-110.2459335l-15.2662369 27.85343034v-27.85343034h-31.87024894v567.44713672c-78.88797582-80.50634524-127.53222315-190.76275883-127.532222-312.38152761 0-246.51968398 199.85008186-446.36976583 446.3639438-446.36976469 246.52666995 0 446.36394382 199.85008186 446.36394383 446.36976467 0 121.6176037-48.6395904 231.87168825-127.5252372 312.37919859zM367.38291143 695.90855339h110.24593466l55.52755938-101.29949128h-110.25175552l-55.52173852 101.29949128z m167.09264043-438.75527566h-110.25175553l-129.57905349 236.24710826h110.25175551l129.57905351-236.24710826z m16.68784128 438.75527566h110.25175552l55.5217374-101.29949128h-110.25175554l-55.52173738 101.29949128z m-72.73816976-202.5081674h110.25175553l129.57905352-236.24710826h-110.25175552l-129.57905353 236.24710826z" fill="#24292e" p-id="1740"></path></svg>