<?xml version="1.0" standalone="no"?><!DOCTYPE svg PUBLIC "-//W3C//DTD SVG 1.1//EN" "http://www.w3.org/Graphics/SVG/1.1/DTD/svg11.dtd"><svg t="1539082827628" class="icon" style="" viewBox="0 0 1024 1024" version="1.1" xmlns="http://www.w3.org/2000/svg" p-id="1506" xmlns:xlink="http://www.w3.org/1999/xlink" width="64" height="64"><defs><style type="text/css"></style></defs><path d="M559.987433 551.375799" p-id="1507" fill="#24292e"></path><path d="M867.348706 411.648454l25.464975 187.406251c-77.985142-16.384156-151.699004-46.709835-217.809701-88.781022 54.813397-24.937972 106.119923-57.824987 152.571884-97.989755 2.319835 0.026606 4.643764 0.159636 6.968715 0.159636C845.732385 412.443563 856.656179 412.17955 867.348706 411.648454L867.348706 411.648454zM358.355179 564.829206 271.893992 701.776228l-119.979582 1.843998 38.191834-175.97592C244.258585 547.674501 300.530193 560.102554 358.355179 564.829206L358.355179 564.829206zM143.578558 742.05049l259.693624-3.986801 94.297666 108.656699c-94.245478-22.194488-198.676945-44.525076-307.069631-44.525076-20.74344 0-40.851407 0.789992-60.516282 2.402723L143.578558 742.05049 143.578558 742.05049zM559.884079 861.471346l0.681522-0.578168L420.535357 699.504488l-116.627231 1.791809 85.035722-134.674259c7.438413 0.237407 14.856359 0.583285 22.324448 0.583285 81.498152 0 160.567999-15.360849 234.174414-44.395116 75.191516 50.727335 160.51581 86.435605 251.145947 104.168478l14.328333 105.516172-87.721901 8.207939-72.788793 149.772119c-3.062755 0.107447-6.100952 0.211824-9.292644 0.211824C690.122305 890.686738 627.233999 877.308033 559.884079 861.471346L559.884079 861.471346zM1017.54345 806.073642 791.233144 982.978724l-10.636245 1.270946c-12.406564 1.476631-25.681916 2.215458-39.452547 2.215458-70.072939 0-150.09446-19.080567-234.809887-39.271422-96.885608-23.092951-206.704782-49.245587-315.831178-49.245587-44.896536 0-86.146009 4.220115-126.131699 12.928451L6.155698 923.547147l132.143623-608.649224 15.676028-8.336876c13.645788-7.28901 27.76332-13.621229 42.252313-19.21462 5.91471 11.05887 12.772908 22.008246 20.641109 33.06814-15.150048 5.517667-30.113855 12.08627-44.892443 19.954471L56.248583 873.455285c267.0031-58.114582 532.47738 86.667895 707.933461 73.79061 26.260084-48.589648 84.23959-170.43881 84.23959-170.43881l124.917034-11.662621-56.533574-416.120302c-130.376373 20.056801-265.475304-15.014972-396.59255-36.895305 7.892761-11.771091 14.648628-23.491017 20.269649-35.418674 20.319791 3.511987 40.562834 7.231705 60.600193 10.924817 77.298504 14.281261 157.24123 29.058826 233.461169 29.058826 27.236318 0 52.256154-1.823532 76.429717-5.542226l38.532595-5.940292L1017.54345 806.073642 1017.54345 806.073642zM583.71074 381.829312c60.813041 11.214413 123.17332 22.722514 186.225355 27.841092-40.960901 30.722722-85.298711 55.898101-132.143623 75.030857-44.527123-32.830733-84.851527-71.358211-119.897717-114.699322C539.506982 373.700167 561.411875 377.685945 583.71074 381.829312L583.71074 381.829312zM419.450652 429.67604c22.432918-23.833825 42.544979-45.264926 60.092633-65.448618 36.895305 49.771567 80.232322 93.976348 128.637776 131.583874-62.495356 21.699208-128.818901 33.073256-196.911742 33.073256-73.708745 0-145.129378-13.248745-212.92853-39.08518l23.831778-109.817128c10.719132-4.565992 21.720697-8.497535 33.095769-11.824303 16.759709 19.054985 35.680641 39.246863 56.694233 61.576427l53.780881 54.67832L419.450652 429.67604 419.450652 429.67604zM365.689215 33.772174c-86.171592 0-156.000983 69.835532-156.000983 155.975401 0 81.182974 54.42147 132.726907 150.380986 235.283678 1.213641 1.292436 5.619998 5.593392 5.619998 5.593392s4.541433-4.457522 5.676279-5.676279c95.934956-102.530165 150.300145-154.017816 150.300145-235.20079C521.665639 103.606683 451.836247 33.772174 365.689215 33.772174L365.689215 33.772174zM365.689215 375.046838c-83.688028-89.039919-117.680213-127.96444-117.680213-185.299263 0-64.885799 52.78418-117.675096 117.680213-117.675096 64.898079 0 117.681236 52.789297 117.681236 117.675096C483.370451 247.102864 449.35166 286.006919 365.689215 375.046838L365.689215 375.046838zM365.689215 375.046838" p-id="1508" fill="#24292e"></path></svg>