<?xml version="1.0" standalone="no"?><!DOCTYPE svg PUBLIC "-//W3C//DTD SVG 1.1//EN" "http://www.w3.org/Graphics/SVG/1.1/DTD/svg11.dtd"><svg t="1539082522764" class="icon" style="" viewBox="0 0 1024 1024" version="1.1" xmlns="http://www.w3.org/2000/svg" p-id="1499" xmlns:xlink="http://www.w3.org/1999/xlink" width="64" height="64"><defs><style type="text/css"></style></defs><path d="M553.44545173 860.9185184a30.34074027 30.34074027 0 0 1 11.10471148 41.44545172l-45.51111148 78.82524481a30.34074027 30.34074027 0 0 1-52.5501632-30.34074133l45.51111147-78.82524374a30.34074027 30.34074027 0 0 1 41.44545173-11.10471146z m-303.40740693 0a30.34074027 30.34074027 0 0 1 11.1047104 41.44545172l-45.5111104 78.82524481a30.34074027 30.34074027 0 0 1-52.5501632-30.34074133L208.59259307 872.02322986a30.34074027 30.34074027 0 0 1 41.44545173-11.10471146z m606.81481493 0a30.34074027 30.34074027 0 0 1 11.10471039 41.44545172l-45.51111039 78.82524481a30.34074027 30.34074027 0 0 1-52.55016321-30.34074133l45.51111041-78.82524374a30.34074027 30.34074027 0 0 1 41.4454528-11.10471146zM564.15573333 56.88888853c145.02874027 0 267.39294827 96.87798507 305.95602986 229.46702294a248.3996448 248.3996448 0 0 1-90.71881492 479.74779201H221.88183681a225.67442988 225.67442988 0 0 1 0-451.31851841h29.46085973c28.33825173-146.90986667 157.62014827-257.89629654 312.81303679-257.89629654z" p-id="1500"></path></svg>